<?xml version="1.0" encoding="UTF-8" standalone="no"?>
<!DOCTYPE svg PUBLIC "-//W3C//DTD SVG 1.1//EN" "http://www.w3.org/Graphics/SVG/1.1/DTD/svg11.dtd">
<svg width="100%" height="100%" viewBox="0 0 3508 2481" version="1.1" xmlns="http://www.w3.org/2000/svg" xmlns:xlink="http://www.w3.org/1999/xlink" xml:space="preserve" xmlns:serif="http://www.serif.com/" style="fill-rule:evenodd;clip-rule:evenodd;stroke-linejoin:round;stroke-miterlimit:2;">
    <g id="图层-1" serif:id="图层 1" transform="matrix(4.16667,0,0,4.16667,0,0)">
        <g transform="matrix(1,0,0,1,177.736,309.724)">
            <path d="M0,6.719L0,-10.295C-0.079,-11.475 -1.066,-12.412 -2.26,-12.412L-2.208,-12.445C-8.823,-12.594 -14.863,-13.26 -19.743,-14.279C-20.195,-14.367 -20.799,-14.347 -21.068,-13.895C-21.353,-13.415 -21.221,-13.052 -21.068,-12.481C-20.911,-11.904 -20.195,-9.498 -20.195,-9.498C-19.728,-7.474 -17.026,-6.989 -15.307,-6.621L-7.612,-4.953C-3.899,-4.155 -2.89,-1.273 -2.89,2.532L-2.89,5.883L-2.894,5.908C-2.894,8.875 -3.382,10.788 -5.355,10.875C-7.85,10.992 -9.668,8.503 -10.638,6.341C-10.664,6.292 -10.689,6.249 -10.704,6.203L-10.735,6.132C-10.821,5.94 -10.892,5.749 -10.963,5.569C-11.618,3.945 -13.091,0.369 -13.091,0.369C-13.091,0.369 -13.284,-0.275 -13.594,-0.484C-13.903,-0.703 -14.188,-0.779 -14.568,-0.779L-17.168,-0.779L-13.812,10.848C-13.126,13.234 -12.288,15.984 -10.405,17.735C-8.089,19.911 -4.322,21.086 0.68,21.086C5.685,21.086 9.46,19.911 11.771,17.735C13.649,15.984 14.492,13.234 15.183,10.848L18.535,-0.779L15.93,-0.779C15.546,-0.779 15.265,-0.703 14.955,-0.484C14.65,-0.275 14.457,0.369 14.457,0.369C14.457,0.369 12.99,3.945 12.329,5.569C12.263,5.749 12.185,5.94 12.096,6.132L12.073,6.203C12.05,6.249 12.035,6.292 12.014,6.341C11.029,8.503 9.211,10.992 6.713,10.875C4.748,10.788 4.26,8.875 4.255,5.908L4.255,2.532C4.255,-1.273 5.263,-4.155 8.983,-4.953L16.666,-6.621C18.392,-6.989 21.099,-7.474 21.556,-9.498C21.556,-9.498 22.267,-11.904 22.434,-12.481C22.586,-13.052 22.714,-13.415 22.434,-13.895C22.163,-14.347 21.561,-14.367 21.109,-14.279C16.224,-13.26 10.187,-12.594 3.57,-12.445L3.628,-12.412C2.433,-12.412 1.447,-11.475 1.358,-10.295L1.358,6.719C1.358,7.097 1.056,7.406 0.68,7.406C0.31,7.406 0,7.097 0,6.719" style="fill:rgb(237,108,0);fill-rule:nonzero;"/>
        </g>
        <g transform="matrix(1,0,0,1,178.812,289.167)">
            <path d="M0,-59.884C0,-59.884 -5.228,-56.971 -7.099,-53.029C-7.896,-51.363 -7.439,-50.297 -4.417,-52.16C-0.122,-54.814 3.76,-56.812 8.374,-58.442C13.452,-60.244 22.77,-62.428 23.44,-62.103C23.713,-61.97 23.729,-61.448 23.196,-60.955C10.003,-48.837 8.582,-39.806 12.177,-38.379C13.954,-37.676 16.953,-38.084 19.626,-38.96C22.297,-39.834 24.907,-40.958 27.898,-41.052C34.936,-41.271 37.889,-27.921 30.285,-15.269C26.024,-8.181 14.67,0.843 13.857,0.508C13.492,0.366 13.375,-0.035 13.527,-0.691C13.634,-1.122 17.709,-10.09 14.482,-11.512C13.979,-11.735 12.718,-11.377 11.521,-8.531C9.983,-4.855 8.8,-4.174 8.166,-4.326C7.533,-4.479 7.759,-5.497 7.86,-6.185C7.957,-6.875 8.1,-7.445 7.719,-7.2C7.338,-6.952 3.717,-2.864 2.569,-2.961C2.164,-2.999 1.904,-3.43 2.168,-4.042C2.427,-4.644 2.701,-5.464 2.701,-5.464C2.701,-5.464 -3.549,0.609 -11.185,2.064C-11.756,2.173 -13.279,2.544 -13.762,2.285C-14.013,2.153 -14.208,1.516 -13.71,1.186C-13.218,0.853 -5.129,-3.334 -1.63,-9.227C-0.574,-11.016 -0.543,-11.928 -0.828,-12.401C-1.529,-13.616 -4.976,-12.418 -7.241,-11.456C-9.506,-10.488 -12.898,-8.518 -17.209,-7.784C-22.556,-6.875 -28.934,-8.495 -32.225,-12.598C-36.02,-17.333 -36.256,-21.99 -35.718,-26.715C-34.027,-41.512 -19.88,-50.901 -14.97,-53.922C-9.046,-57.569 -0.256,-61.367 0.421,-61.095C0.767,-60.955 0.919,-60.427 0,-59.884" style="fill:rgb(237,108,0);fill-rule:nonzero;"/>
        </g>
        <g transform="matrix(1,0,0,1,287.353,324.697)">
            <path d="M0,-62.54L0,-27.629C0,-19.325 0.213,-15.589 2.666,-12.329C5.128,-8.968 9.404,-7.376 13.573,-7.376C17.524,-7.376 22.866,-8.968 25.217,-13.444C26.816,-16.153 27.568,-19.047 27.568,-27.721L27.568,-62.54L36.866,-62.54L36.866,-27.441C36.866,-23.054 38.79,0 11.003,0C7.053,0 -5.134,-0.469 -11.11,-11.02C-13.253,-14.752 -13.685,-19.047 -13.685,-26.045L-13.685,-62.54L0,-62.54Z" style="fill:rgb(7,56,60);fill-rule:nonzero;"/>
        </g>
        <g transform="matrix(1,0,0,1,364.619,315.549)">
            <path d="M0,-45.087C-3.524,-46.3 -6.728,-47.232 -10.902,-47.232C-17.631,-47.232 -21.375,-44.155 -21.375,-39.95C-21.375,-36.962 -19.449,-34.164 -12.934,-29.871L-8.658,-26.976C0.32,-21.005 6.408,-16.62 6.408,-8.028C6.408,1.581 -2.133,9.143 -15.706,9.143C-23.623,9.143 -30.021,6.304 -33.55,4.723L-33.555,-3.362L-29.389,-1.31C-25.431,0.465 -21.271,2.143 -16.031,2.143C-8.978,2.143 -5.771,-1.778 -5.771,-5.506C-5.771,-9.524 -8.978,-12.136 -15.173,-16.337L-19.449,-19.324C-27.03,-24.361 -33.55,-29.594 -33.55,-37.894C-33.55,-47.047 -24.364,-54.23 -11.542,-54.23C-6.175,-54.23 -1.76,-53.26 1.64,-52.046L1.65,-44.33L0,-45.087Z" style="fill:rgb(7,56,60);fill-rule:nonzero;"/>
        </g>
        <g transform="matrix(1,0,0,1,261.887,315.549)">
            <path d="M0,-45.087C-3.524,-46.3 -6.729,-47.232 -10.897,-47.232C-17.63,-47.232 -21.374,-44.155 -21.374,-39.95C-21.374,-36.962 -19.449,-34.164 -12.928,-29.871L-8.653,-26.976C0.32,-21.005 6.414,-16.62 6.414,-8.028C6.414,1.581 -2.138,9.143 -15.707,9.143C-23.623,9.143 -30.021,6.304 -33.55,4.723L-33.555,-3.362L-29.386,-1.31C-25.431,0.465 -21.266,2.143 -16.026,2.143C-8.973,2.143 -5.774,-1.778 -5.774,-5.506C-5.774,-9.524 -8.973,-12.136 -15.173,-16.337L-19.449,-19.324C-27.035,-24.361 -33.55,-29.594 -33.55,-37.894C-33.55,-47.047 -24.364,-54.23 -11.537,-54.23C-6.175,-54.23 -1.752,-53.26 1.646,-52.046L1.65,-44.33L0,-45.087Z" style="fill:rgb(7,56,60);fill-rule:nonzero;"/>
        </g>
        <g transform="matrix(1,0,0,1,422.588,323.757)">
            <path d="M0,-61.6L0,-54.602L-18.377,-54.602L-18.377,0L-31.95,0L-31.95,-54.602L-50.438,-54.602L-50.438,-61.6L0,-61.6Z" style="fill:rgb(7,56,60);fill-rule:nonzero;"/>
        </g>
        <g transform="matrix(1,0,0,1,430.038,285.903)">
            <path d="M0,21.448C0.187,24.179 0.944,26.906 2.873,28.935C4.937,31.096 7.737,31.813 10.652,31.813C14.608,31.813 18.122,30.514 21.261,28.11L22.637,27.058L22.637,34.934L22.271,35.194C18.468,37.887 13.717,38.719 9.145,38.719C4.162,38.719 -0.363,37.259 -3.718,33.469C-7.222,29.516 -8.318,24.291 -8.318,19.132C-8.318,13.81 -6.876,8.89 -3.294,4.884C0.063,1.131 4.274,-0.783 9.313,-0.783C13.866,-0.783 17.98,0.573 21.022,4.056C24.231,7.732 25.211,12.607 25.211,17.359L25.211,21.448L0,21.448ZM60.213,36.107C57.045,38.01 53.435,38.719 49.772,38.719C44.675,38.719 40.109,37.156 36.565,33.422C32.995,29.655 31.563,24.957 31.563,19.813C31.563,14.242 33.042,9.027 36.937,4.909C40.775,0.842 45.787,-0.783 51.317,-0.783C54.358,-0.783 57.446,-0.309 60.188,1.07L60.655,1.306L60.655,9.847L59.294,8.844C56.912,7.097 54.271,6.209 51.317,6.209C48.041,6.209 45.233,7.28 43.024,9.725C40.622,12.379 39.805,15.781 39.805,19.288C39.805,22.6 40.516,25.965 42.816,28.468C44.984,30.816 47.803,31.723 50.956,31.723C54.044,31.723 56.796,30.647 59.258,28.818L60.624,27.801L60.624,35.856L60.213,36.107ZM75.909,4.361C78.661,1.004 82.327,-0.783 86.959,-0.783C96.657,-0.783 99.993,5.894 99.993,14.785L99.993,37.87L91.915,37.87L91.915,16.258C91.915,11.137 90.655,6.209 84.679,6.209C82.145,6.209 80.094,7.179 78.442,9.098C76.62,11.211 75.909,13.785 75.909,16.547L75.909,37.87L67.805,37.87L67.805,-17.271L75.909,-17.271L75.909,4.361ZM17.076,14.613C16.962,12.419 16.437,10.154 14.989,8.459C13.498,6.714 11.47,6.074 9.21,6.074C6.833,6.074 4.88,6.97 3.22,8.659C1.581,10.327 0.619,12.379 0.131,14.613L17.076,14.613Z" style="fill:rgb(7,56,60);fill-rule:nonzero;"/>
        </g>
        <g transform="matrix(1,0,0,1,553.827,320.614)">
            <path d="M0,-55.311C-0.071,-56.126 -0.396,-56.756 -0.965,-57.198C-1.528,-57.644 -2.29,-57.863 -3.25,-57.863C-4.235,-57.863 -4.982,-57.67 -5.495,-57.294C-6.002,-56.911 -6.262,-56.35 -6.262,-55.623C-6.262,-55.121 -6.094,-54.748 -5.753,-54.501C-5.408,-54.258 -4.728,-54.009 -3.702,-53.77L-1.447,-53.232C-0.243,-52.945 0.619,-52.526 1.132,-51.959C1.655,-51.401 1.914,-50.611 1.914,-49.591C1.914,-48.418 1.468,-47.491 0.583,-46.803C-0.31,-46.115 -1.509,-45.772 -3.032,-45.772C-4.712,-45.772 -6.033,-46.168 -6.982,-46.958C-7.906,-47.737 -8.368,-48.807 -8.368,-50.16L-8.368,-50.256L-6.77,-50.256C-6.733,-49.317 -6.399,-48.596 -5.744,-48.088C-5.093,-47.575 -4.19,-47.321 -3.026,-47.321C-1.95,-47.321 -1.133,-47.506 -0.579,-47.88C-0.025,-48.24 0.259,-48.786 0.259,-49.504C0.259,-50.124 0.07,-50.586 -0.295,-50.889C-0.655,-51.177 -1.392,-51.459 -2.494,-51.721L-4.753,-52.262C-5.886,-52.531 -6.698,-52.904 -7.186,-53.386C-7.668,-53.867 -7.912,-54.532 -7.912,-55.38C-7.912,-56.622 -7.495,-57.602 -6.652,-58.328C-5.81,-59.051 -4.678,-59.414 -3.245,-59.414C-1.793,-59.414 -0.641,-59.051 0.223,-58.32C1.081,-57.591 1.549,-56.591 1.604,-55.311L0,-55.311ZM8.227,-45.881C6.926,-45.881 5.875,-46.338 5.067,-47.255C4.26,-48.169 3.859,-49.373 3.859,-50.853C3.859,-52.343 4.26,-53.541 5.067,-54.46C5.875,-55.374 6.926,-55.832 8.227,-55.832C9.536,-55.832 10.598,-55.374 11.399,-54.46C12.202,-53.541 12.604,-52.343 12.604,-50.853C12.604,-49.373 12.202,-48.169 11.399,-47.255C10.598,-46.338 9.536,-45.881 8.227,-45.881M8.227,-47.245C9.059,-47.245 9.719,-47.575 10.206,-48.225C10.704,-48.875 10.942,-49.748 10.942,-50.853C10.942,-51.957 10.704,-52.833 10.206,-53.488C9.719,-54.138 9.059,-54.466 8.227,-54.466C7.393,-54.466 6.732,-54.138 6.245,-53.488C5.753,-52.833 5.514,-51.957 5.514,-50.853C5.514,-49.748 5.753,-48.875 6.245,-48.225C6.732,-47.575 7.393,-47.245 8.227,-47.245M16.513,-55.545L16.513,-49.479C16.513,-48.695 16.665,-48.118 16.971,-47.773C17.27,-47.425 17.767,-47.245 18.452,-47.245C19.209,-47.245 19.813,-47.544 20.255,-48.128C20.702,-48.72 20.921,-49.515 20.921,-50.528L20.921,-55.545L22.505,-55.545L22.505,-46.133L20.997,-46.133L20.997,-47.565C20.896,-47.394 20.778,-47.235 20.646,-47.082C19.976,-46.28 19.133,-45.881 18.122,-45.881C17.056,-45.881 16.26,-46.148 15.726,-46.682C15.192,-47.219 14.929,-48.012 14.929,-49.083L14.929,-55.545L16.513,-55.545ZM28.812,-46.153C28.269,-46.067 27.872,-46.031 27.628,-46.031C26.938,-46.031 26.445,-46.178 26.161,-46.483C25.877,-46.788 25.734,-47.313 25.734,-48.06L25.734,-54.268L24.435,-54.268L24.435,-55.545L25.734,-55.545L25.734,-58.172L27.313,-58.172L27.313,-55.545L28.812,-55.545L28.812,-54.268L27.313,-54.268L27.313,-48.062C27.313,-47.852 27.4,-47.682 27.568,-47.565C27.735,-47.438 27.958,-47.372 28.243,-47.372L28.812,-47.372L28.812,-46.153ZM30.822,-46.133L30.822,-59.051L32.407,-59.051L32.407,-54.278L32.681,-54.628C33.361,-55.43 34.22,-55.832 35.251,-55.832C36.287,-55.832 37.083,-55.55 37.647,-54.986C38.206,-54.422 38.49,-53.623 38.49,-52.587L38.49,-46.133L36.906,-46.133L36.906,-52.191C36.906,-52.973 36.753,-53.532 36.459,-53.876C36.159,-54.222 35.677,-54.39 35.007,-54.39C34.21,-54.39 33.574,-54.103 33.107,-53.526C32.64,-52.945 32.407,-52.163 32.407,-51.177L32.407,-46.133L30.822,-46.133ZM45.132,-45.881C43.802,-45.881 42.756,-46.303 41.994,-47.144C41.232,-47.997 40.852,-49.16 40.852,-50.647C40.852,-52.231 41.258,-53.493 42.061,-54.428C42.862,-55.364 43.944,-55.832 45.31,-55.832C46.533,-55.832 47.529,-55.37 48.28,-54.458C49.042,-53.541 49.413,-52.338 49.413,-50.853L49.397,-50.287L42.537,-50.287C42.604,-49.35 42.816,-48.642 43.182,-48.146C43.624,-47.55 44.325,-47.245 45.284,-47.245C45.884,-47.245 46.412,-47.415 46.863,-47.755C47.315,-48.098 47.59,-48.524 47.687,-49.048L49.256,-49.048C49.017,-48.017 48.549,-47.235 47.849,-46.696C47.143,-46.153 46.244,-45.881 45.132,-45.881M47.778,-51.571C47.728,-52.44 47.509,-53.12 47.123,-53.603C46.701,-54.138 46.071,-54.405 45.244,-54.405C44.411,-54.405 43.746,-54.103 43.248,-53.478C42.856,-52.993 42.618,-52.353 42.537,-51.571L47.778,-51.571ZM51.998,-46.133L51.998,-55.545L53.501,-55.545L53.501,-53.937C53.638,-54.186 53.779,-54.42 53.933,-54.624C54.526,-55.43 55.263,-55.832 56.136,-55.832C56.284,-55.832 56.431,-55.801 56.583,-55.756L56.583,-54.131L56.259,-54.138C55.399,-54.138 54.739,-53.879 54.282,-53.369C53.81,-52.861 53.582,-52.13 53.582,-51.177L53.582,-46.133L51.998,-46.133ZM58.244,-46.133L58.244,-55.545L59.751,-55.545L59.751,-54.166L60.097,-54.628C60.782,-55.43 61.641,-55.832 62.671,-55.832C63.707,-55.832 64.505,-55.55 65.068,-54.986C65.627,-54.422 65.905,-53.623 65.905,-52.587L65.905,-46.133L64.322,-46.133L64.322,-52.051C64.322,-52.876 64.164,-53.476 63.85,-53.841C63.524,-54.207 63.012,-54.39 62.301,-54.39C61.539,-54.39 60.94,-54.103 60.493,-53.526C60.046,-52.945 59.827,-52.163 59.827,-51.177L59.827,-46.133L58.244,-46.133ZM83.141,-50.865C83.141,-49.271 82.688,-48.017 81.795,-47.128C80.896,-46.222 79.657,-45.772 78.063,-45.772C76.401,-45.772 75.143,-46.207 74.274,-47.072C73.406,-47.936 72.969,-49.2 72.969,-50.865L72.969,-59.051L74.722,-59.051L74.722,-50.998C74.722,-49.796 75.005,-48.88 75.569,-48.253C76.138,-47.633 76.971,-47.321 78.063,-47.321C79.148,-47.321 79.982,-47.633 80.546,-48.253C81.114,-48.88 81.394,-49.796 81.394,-50.998L81.394,-59.051L83.141,-59.051L83.141,-50.865ZM86.188,-46.133L86.188,-55.545L87.695,-55.545L87.695,-54.166L88.046,-54.628C88.727,-55.43 89.584,-55.832 90.61,-55.832C91.65,-55.832 92.448,-55.55 93.007,-54.986C93.57,-54.422 93.85,-53.623 93.85,-52.587L93.85,-46.133L92.271,-46.133L92.271,-52.051C92.271,-52.876 92.108,-53.476 91.793,-53.841C91.468,-54.207 90.955,-54.39 90.244,-54.39C89.478,-54.39 88.878,-54.103 88.437,-53.526C87.99,-52.945 87.771,-52.163 87.771,-51.177L87.771,-46.133L86.188,-46.133ZM96.719,-46.133L96.719,-55.545L98.303,-55.545L98.303,-46.133L96.719,-46.133ZM96.698,-59.066L98.318,-59.066L98.318,-57.271L96.698,-57.271L96.698,-59.066ZM100.105,-55.545L101.954,-55.545L104.473,-47.842L107.077,-55.545L108.819,-55.545L105.315,-46.133L103.619,-46.133L100.105,-55.545ZM114.425,-45.881C113.1,-45.881 112.054,-46.303 111.292,-47.144C110.53,-47.997 110.149,-49.16 110.149,-50.647C110.149,-52.231 110.552,-53.493 111.358,-54.428C112.161,-55.364 113.242,-55.832 114.604,-55.832C115.832,-55.832 116.821,-55.37 117.583,-54.458C118.341,-53.541 118.717,-52.338 118.717,-50.853L118.696,-50.287L111.835,-50.287C111.896,-49.35 112.109,-48.642 112.476,-48.146C112.923,-47.55 113.623,-47.245 114.583,-47.245C115.187,-47.245 115.715,-47.415 116.162,-47.755C116.614,-48.098 116.889,-48.524 116.989,-49.048L118.554,-49.048C118.319,-48.017 117.849,-47.235 117.146,-46.696C116.446,-46.153 115.538,-45.881 114.425,-45.881M117.07,-51.571C117.025,-52.44 116.807,-53.12 116.421,-53.603C115.995,-54.138 115.365,-54.405 114.542,-54.405C113.714,-54.405 113.044,-54.103 112.546,-53.478C112.156,-52.993 111.916,-52.353 111.835,-51.571L117.07,-51.571ZM121.29,-46.133L121.29,-55.545L122.799,-55.545L122.799,-53.937C122.937,-54.186 123.073,-54.42 123.23,-54.624C123.829,-55.43 124.565,-55.832 125.439,-55.832C125.582,-55.832 125.729,-55.801 125.882,-55.756L125.882,-54.131L125.562,-54.138C124.703,-54.138 124.043,-53.879 123.576,-53.369C123.113,-52.861 122.88,-52.13 122.88,-51.177L122.88,-46.133L121.29,-46.133ZM132.92,-52.828C132.868,-53.346 132.66,-53.75 132.284,-54.034C131.903,-54.321 131.396,-54.466 130.762,-54.466C130.101,-54.466 129.603,-54.352 129.253,-54.123C128.913,-53.894 128.74,-53.56 128.74,-53.12C128.74,-52.78 128.861,-52.536 129.106,-52.366C129.339,-52.196 129.827,-52.023 130.538,-51.856L132.173,-51.47C133.092,-51.246 133.747,-50.936 134.138,-50.545C134.524,-50.16 134.722,-49.616 134.722,-48.915C134.722,-47.986 134.382,-47.245 133.711,-46.696C133.041,-46.153 132.132,-45.881 130.989,-45.881C129.664,-45.881 128.674,-46.143 128.029,-46.666C127.374,-47.191 127.014,-48.012 126.942,-49.139L128.455,-49.139C128.532,-48.474 128.771,-47.997 129.166,-47.697C129.563,-47.4 130.172,-47.245 130.985,-47.245C131.7,-47.245 132.239,-47.382 132.604,-47.656C132.975,-47.923 133.158,-48.316 133.158,-48.829C133.158,-49.16 133.041,-49.408 132.797,-49.578C132.559,-49.743 132.071,-49.918 131.341,-50.091L129.71,-50.475C128.821,-50.688 128.191,-50.985 127.816,-51.363C127.44,-51.739 127.253,-52.265 127.253,-52.945C127.253,-53.831 127.567,-54.532 128.197,-55.049C128.832,-55.573 129.685,-55.832 130.767,-55.832C131.858,-55.832 132.73,-55.563 133.382,-55.034C134.031,-54.501 134.377,-53.765 134.418,-52.828L132.92,-52.828ZM137.062,-46.133L137.062,-55.545L138.646,-55.545L138.646,-46.133L137.062,-46.133ZM137.042,-59.066L138.663,-59.066L138.663,-57.271L137.042,-57.271L137.042,-59.066ZM144.934,-46.153C144.395,-46.067 143.999,-46.031 143.75,-46.031C143.056,-46.031 142.566,-46.178 142.283,-46.483C141.998,-46.788 141.852,-47.313 141.852,-48.06L141.852,-54.268L140.556,-54.268L140.556,-55.545L141.852,-55.545L141.852,-58.172L143.437,-58.172L143.437,-55.545L144.934,-55.545L144.934,-54.268L143.437,-54.268L143.437,-48.062C143.437,-47.852 143.521,-47.682 143.689,-47.565C143.862,-47.438 144.086,-47.372 144.364,-47.372L144.934,-47.372L144.934,-46.153ZM154.566,-55.545L150.991,-45.823C150.437,-44.371 149.95,-43.424 149.524,-42.982C149.093,-42.535 148.442,-42.314 147.589,-42.314C147.305,-42.307 147.046,-42.339 146.822,-42.408L146.822,-43.883C147.061,-43.787 147.36,-43.746 147.727,-43.739C148.082,-43.739 148.376,-43.883 148.62,-44.18C148.863,-44.475 149.133,-45.021 149.437,-45.828L149.468,-45.978L149.468,-45.973L145.975,-55.545L147.777,-55.545L150.291,-47.768L152.835,-55.545L154.566,-55.545ZM-4.246,-22.754C-5.551,-22.754 -6.597,-23.211 -7.404,-24.125C-8.217,-25.039 -8.617,-26.243 -8.617,-27.73C-8.617,-29.216 -8.217,-30.417 -7.404,-31.331C-6.597,-32.245 -5.551,-32.702 -4.246,-32.702C-2.936,-32.702 -1.874,-32.245 -1.071,-31.331C-0.27,-30.417 0.132,-29.216 0.132,-27.73C0.132,-26.243 -0.27,-25.039 -1.071,-24.125C-1.874,-23.211 -2.936,-22.754 -4.246,-22.754M-4.246,-24.12C-3.412,-24.12 -2.758,-24.448 -2.265,-25.098C-1.772,-25.748 -1.523,-26.621 -1.523,-27.73C-1.523,-28.827 -1.772,-29.701 -2.265,-30.351C-2.758,-31.005 -3.412,-31.336 -4.246,-31.336C-5.078,-31.336 -5.738,-31.005 -6.231,-30.351C-6.719,-29.701 -6.962,-28.827 -6.962,-27.73C-6.962,-26.621 -6.719,-25.748 -6.231,-25.098C-5.738,-24.448 -5.078,-24.12 -4.246,-24.12M4.361,-31.082L4.361,-23.005L2.782,-23.005L2.782,-31.082L1.482,-31.082L1.482,-32.397L2.782,-32.397L2.782,-33.999C2.782,-34.697 2.985,-35.22 3.396,-35.573C3.809,-35.926 4.422,-36.099 5.245,-36.099L5.931,-36.079L5.931,-34.657L5.312,-34.677C5.007,-34.677 4.777,-34.581 4.61,-34.385C4.447,-34.19 4.361,-33.91 4.361,-33.545L4.361,-32.397L5.931,-32.397L5.931,-31.082L4.361,-31.082ZM19.95,-32.179C19.869,-32.996 19.555,-33.626 18.986,-34.07C18.422,-34.512 17.655,-34.736 16.701,-34.736C15.711,-34.736 14.964,-34.545 14.451,-34.162C13.938,-33.781 13.689,-33.225 13.689,-32.494C13.689,-31.991 13.857,-31.62 14.197,-31.372C14.532,-31.13 15.224,-30.884 16.243,-30.645L18.499,-30.107C19.707,-29.812 20.565,-29.396 21.083,-28.827C21.602,-28.274 21.86,-27.484 21.86,-26.461C21.86,-25.288 21.418,-24.358 20.524,-23.673C19.642,-22.982 18.437,-22.642 16.92,-22.642C15.233,-22.642 13.913,-23.041 12.969,-23.831C12.04,-24.607 11.578,-25.674 11.578,-27.027L11.578,-27.122L13.183,-27.122C13.208,-26.189 13.547,-25.466 14.202,-24.956C14.853,-24.448 15.756,-24.191 16.924,-24.191C17.996,-24.191 18.813,-24.379 19.371,-24.745C19.92,-25.115 20.205,-25.659 20.205,-26.374C20.205,-26.989 20.022,-27.457 19.656,-27.756C19.29,-28.05 18.56,-28.327 17.452,-28.594L15.198,-29.132C14.06,-29.401 13.248,-29.774 12.761,-30.254C12.278,-30.739 12.034,-31.407 12.034,-32.255C12.034,-33.489 12.455,-34.469 13.294,-35.2C14.132,-35.921 15.269,-36.282 16.701,-36.282C18.153,-36.282 19.312,-35.921 20.169,-35.195C21.033,-34.459 21.495,-33.463 21.551,-32.179L19.95,-32.179ZM31.763,-26.385C31.595,-25.207 31.178,-24.303 30.503,-23.681C29.833,-23.059 28.935,-22.754 27.817,-22.754C26.567,-22.754 25.572,-23.201 24.83,-24.098C24.089,-24.994 23.714,-26.207 23.714,-27.725C23.714,-29.244 24.1,-30.447 24.872,-31.353C25.638,-32.255 26.674,-32.702 27.974,-32.702C29.106,-32.702 30.005,-32.397 30.68,-31.778C31.351,-31.161 31.712,-30.312 31.763,-29.228L30.243,-29.228C30.183,-29.899 29.949,-30.417 29.548,-30.782C29.142,-31.15 28.604,-31.336 27.933,-31.336C27.126,-31.336 26.507,-31.011 26.049,-30.371C25.603,-29.731 25.368,-28.848 25.368,-27.725C25.368,-26.532 25.583,-25.625 26.004,-25.024C26.426,-24.42 27.05,-24.12 27.883,-24.12C28.497,-24.12 29.01,-24.316 29.426,-24.709C29.837,-25.103 30.111,-25.664 30.243,-26.385L31.763,-26.385ZM33.869,-23.005L33.869,-32.412L35.453,-32.412L35.453,-23.005L33.869,-23.005ZM33.844,-35.941L35.47,-35.941L35.47,-34.144L33.844,-34.144L33.844,-35.941ZM42.111,-22.754C40.78,-22.754 39.734,-23.175 38.978,-24.016C38.211,-24.864 37.83,-26.029 37.83,-27.522C37.83,-29.102 38.231,-30.361 39.039,-31.3C39.846,-32.234 40.928,-32.702 42.283,-32.702C43.518,-32.702 44.508,-32.245 45.264,-31.331C46.016,-30.414 46.397,-29.21 46.397,-27.725L46.381,-27.159L39.521,-27.159C39.582,-26.223 39.796,-25.506 40.156,-25.014C40.603,-24.417 41.303,-24.12 42.263,-24.12C42.867,-24.12 43.396,-24.288 43.848,-24.623C44.295,-24.966 44.573,-25.393 44.67,-25.917L46.233,-25.917C46,-24.889 45.528,-24.105 44.827,-23.564C44.127,-23.021 43.218,-22.754 42.111,-22.754M44.751,-28.439C44.71,-29.31 44.487,-29.985 44.106,-30.473C43.675,-31.011 43.05,-31.28 42.223,-31.28C41.39,-31.28 40.725,-30.976 40.227,-30.351C39.831,-29.863 39.597,-29.226 39.521,-28.439L44.751,-28.439ZM48.764,-23.005L48.764,-32.412L50.266,-32.412L50.266,-31.031L50.611,-31.498C51.302,-32.3 52.155,-32.702 53.186,-32.702C54.227,-32.702 55.024,-32.422 55.582,-31.859C56.142,-31.295 56.425,-30.493 56.425,-29.452L56.425,-23.005L54.842,-23.005L54.842,-28.919C54.842,-29.747 54.684,-30.34 54.364,-30.711C54.044,-31.082 53.526,-31.262 52.82,-31.262C52.054,-31.262 51.449,-30.976 51.007,-30.394C50.565,-29.812 50.343,-29.036 50.343,-28.05L50.343,-23.005L48.764,-23.005ZM66.647,-26.385C66.484,-25.207 66.073,-24.303 65.398,-23.681C64.729,-23.059 63.824,-22.754 62.707,-22.754C61.462,-22.754 60.468,-23.201 59.721,-24.098C58.98,-24.994 58.604,-26.207 58.604,-27.725C58.604,-29.244 58.989,-30.447 59.762,-31.353C60.528,-32.255 61.569,-32.702 62.869,-32.702C64.001,-32.702 64.895,-32.397 65.571,-31.778C66.241,-31.161 66.602,-30.312 66.647,-29.228L65.14,-29.228C65.078,-29.899 64.84,-30.417 64.438,-30.782C64.032,-31.15 63.494,-31.336 62.824,-31.336C62.026,-31.336 61.396,-31.011 60.944,-30.371C60.493,-29.731 60.26,-28.848 60.26,-27.725C60.26,-26.532 60.473,-25.625 60.894,-25.024C61.315,-24.42 61.945,-24.12 62.772,-24.12C63.388,-24.12 63.905,-24.316 64.316,-24.709C64.732,-25.103 65.007,-25.664 65.14,-26.385L66.647,-26.385ZM72.538,-22.754C71.208,-22.754 70.161,-23.175 69.399,-24.016C68.638,-24.864 68.257,-26.029 68.257,-27.522C68.257,-29.102 68.653,-30.361 69.466,-31.3C70.268,-32.234 71.35,-32.702 72.705,-32.702C73.939,-32.702 74.935,-32.245 75.686,-31.331C76.443,-30.414 76.818,-29.21 76.818,-27.725L76.803,-27.159L69.942,-27.159C70.004,-26.223 70.217,-25.506 70.583,-25.014C71.024,-24.417 71.73,-24.12 72.689,-24.12C73.289,-24.12 73.817,-24.288 74.269,-24.623C74.722,-24.966 74.996,-25.393 75.092,-25.917L76.661,-25.917C76.422,-24.889 75.95,-24.105 75.254,-23.564C74.549,-23.021 73.645,-22.754 72.538,-22.754M75.173,-28.439C75.133,-29.31 74.909,-29.985 74.528,-30.473C74.097,-31.011 73.473,-31.28 72.645,-31.28C71.816,-31.28 71.151,-30.976 70.648,-30.351C70.263,-29.863 70.019,-29.226 69.942,-28.439L75.173,-28.439ZM85.659,-22.754C84.74,-22.754 84.009,-22.993 83.471,-23.488C82.932,-23.98 82.663,-24.648 82.663,-25.486C82.663,-26.334 82.917,-26.999 83.42,-27.499C83.928,-27.997 84.669,-28.304 85.644,-28.431L87.797,-28.705C87.975,-28.715 88.137,-28.749 88.299,-28.794C88.503,-28.842 88.66,-28.949 88.771,-29.109C88.884,-29.269 88.939,-29.472 88.939,-29.706L88.939,-29.792C88.939,-30.297 88.746,-30.691 88.371,-30.98C87.984,-31.262 87.452,-31.407 86.775,-31.407C86.121,-31.407 85.613,-31.257 85.253,-30.952C84.882,-30.655 84.658,-30.203 84.588,-29.604L83.13,-29.604C83.202,-30.635 83.566,-31.412 84.217,-31.925C84.866,-32.443 85.796,-32.702 87.01,-32.702C88.152,-32.702 89.031,-32.45 89.625,-31.96C90.225,-31.465 90.524,-30.742 90.524,-29.792L90.524,-24.613C90.524,-24.46 90.574,-24.331 90.671,-24.237C90.768,-24.138 90.899,-24.089 91.062,-24.089C91.112,-24.089 91.179,-24.095 91.27,-24.107C91.367,-24.12 91.463,-24.138 91.569,-24.161L91.569,-23.018C91.412,-22.957 91.255,-22.912 91.087,-22.876C90.91,-22.84 90.768,-22.823 90.65,-22.823C90.052,-22.823 89.614,-22.988 89.346,-23.318C89.173,-23.531 89.041,-23.836 88.97,-24.237C88.853,-24.089 88.716,-23.948 88.563,-23.813C87.771,-23.104 86.801,-22.754 85.659,-22.754M88.939,-26.732L88.939,-27.75C88.646,-27.614 88.324,-27.517 87.97,-27.464L86.512,-27.25C85.751,-27.146 85.196,-26.969 84.847,-26.717C84.491,-26.466 84.319,-26.126 84.319,-25.694C84.319,-25.166 84.46,-24.76 84.75,-24.476C85.034,-24.191 85.44,-24.049 85.969,-24.049C86.801,-24.049 87.503,-24.272 88.081,-24.729C88.472,-25.044 88.735,-25.402 88.863,-25.801C88.884,-25.882 88.903,-26.004 88.914,-26.166C88.929,-26.334 88.939,-26.524 88.939,-26.732M93.662,-23.005L93.662,-32.412L95.164,-32.412L95.164,-31.031L95.516,-31.498C96.206,-32.3 97.06,-32.702 98.09,-32.702C99.126,-32.702 99.923,-32.422 100.486,-31.859C101.046,-31.295 101.324,-30.493 101.324,-29.452L101.324,-23.005L99.745,-23.005L99.745,-28.919C99.745,-29.747 99.582,-30.34 99.263,-30.711C98.948,-31.082 98.431,-31.262 97.72,-31.262C96.958,-31.262 96.354,-30.976 95.911,-30.394C95.464,-29.812 95.246,-29.036 95.246,-28.05L95.246,-23.005L93.662,-23.005ZM107.718,-22.754C106.464,-22.754 105.463,-23.221 104.712,-24.166C103.97,-25.105 103.6,-26.377 103.6,-27.974C103.6,-29.391 103.96,-30.531 104.681,-31.402C105.402,-32.27 106.341,-32.702 107.499,-32.702C108.657,-32.702 109.566,-32.212 110.241,-31.234L110.363,-31.059L110.363,-35.923L111.947,-35.923L111.947,-23.005L110.479,-23.005L110.479,-24.288L110.277,-24.001C109.627,-23.171 108.773,-22.754 107.718,-22.754M107.809,-31.28C106.926,-31.28 106.28,-31.001 105.868,-30.432C105.463,-29.863 105.255,-28.962 105.255,-27.73C105.255,-26.563 105.479,-25.674 105.915,-25.039C106.361,-24.415 106.991,-24.102 107.809,-24.102C108.575,-24.102 109.194,-24.389 109.667,-24.968C110.13,-25.544 110.363,-26.314 110.363,-27.266C110.363,-28.548 110.146,-29.541 109.703,-30.234C109.261,-30.932 108.626,-31.28 107.809,-31.28M-4.621,0.129L-4.621,-11.245L-8.993,-11.245L-8.993,-12.791L1.498,-12.791L1.498,-11.245L-2.875,-11.245L-2.875,0.129L-4.621,0.129ZM7.216,0.378C5.886,0.378 4.845,-0.042 4.077,-0.889C3.321,-1.737 2.935,-2.902 2.935,-4.389C2.935,-5.971 3.341,-7.233 4.143,-8.167C4.951,-9.105 6.032,-9.572 7.393,-9.572C8.616,-9.572 9.612,-9.11 10.369,-8.202C11.125,-7.282 11.506,-6.078 11.506,-4.592L11.48,-4.026L4.62,-4.026C4.687,-3.089 4.905,-2.381 5.265,-1.887C5.707,-1.29 6.407,-0.99 7.373,-0.99C7.972,-0.99 8.501,-1.158 8.946,-1.496C9.399,-1.838 9.674,-2.264 9.774,-2.788L11.338,-2.788C11.105,-1.757 10.638,-0.975 9.932,-0.436C9.237,0.107 8.327,0.378 7.216,0.378M9.856,-5.311C9.815,-6.185 9.597,-6.856 9.206,-7.343C8.784,-7.88 8.154,-8.15 7.327,-8.15C6.494,-8.15 5.829,-7.843 5.332,-7.218C4.94,-6.733 4.707,-6.094 4.62,-5.311L9.856,-5.311ZM21.28,-3.26C21.114,-2.072 20.697,-1.17 20.022,-0.553C19.352,0.071 18.452,0.378 17.33,0.378C16.092,0.378 15.096,-0.074 14.355,-0.97C13.604,-1.864 13.238,-3.075 13.238,-4.592C13.238,-6.111 13.623,-7.32 14.39,-8.22C15.162,-9.12 16.193,-9.572 17.492,-9.572C18.626,-9.572 19.524,-9.259 20.205,-8.648C20.87,-8.033 21.23,-7.18 21.28,-6.098L19.768,-6.098C19.701,-6.769 19.463,-7.287 19.062,-7.653C18.661,-8.023 18.122,-8.206 17.447,-8.206C16.649,-8.206 16.025,-7.883 15.573,-7.242C15.117,-6.601 14.894,-5.718 14.894,-4.592C14.894,-3.4 15.101,-2.498 15.523,-1.894C15.944,-1.295 16.573,-0.99 17.401,-0.99C18.021,-0.99 18.528,-1.189 18.945,-1.579C19.362,-1.97 19.631,-2.532 19.768,-3.26L21.28,-3.26ZM23.333,0.129L23.333,-12.791L24.917,-12.791L24.917,-8.018L25.191,-8.369C25.872,-9.17 26.734,-9.572 27.761,-9.572C28.797,-9.572 29.599,-9.29 30.158,-8.727C30.716,-8.163 31.001,-7.363 31.001,-6.324L31.001,0.129L29.416,0.129L29.416,-5.933C29.416,-6.713 29.264,-7.271 28.969,-7.617C28.669,-7.958 28.182,-8.135 27.512,-8.135C26.715,-8.135 26.085,-7.845 25.617,-7.267C25.15,-6.688 24.917,-5.906 24.917,-4.915L24.917,0.129L23.333,0.129ZM33.813,0.129L33.813,-9.285L35.321,-9.285L35.321,-7.902L35.667,-8.369C36.353,-9.17 37.211,-9.572 38.236,-9.572C39.277,-9.572 40.075,-9.29 40.633,-8.727C41.196,-8.163 41.476,-7.363 41.476,-6.324L41.476,0.129L39.892,0.129L39.892,-5.791C39.892,-6.617 39.734,-7.216 39.415,-7.582C39.095,-7.95 38.581,-8.135 37.87,-8.135C37.104,-8.135 36.505,-7.845 36.063,-7.267C35.616,-6.688 35.393,-5.906 35.393,-4.915L35.393,0.129L33.813,0.129ZM48.117,0.378C46.813,0.378 45.768,-0.081 44.954,-0.996C44.152,-1.913 43.746,-3.113 43.746,-4.598C43.746,-6.083 44.152,-7.287 44.954,-8.204C45.768,-9.115 46.813,-9.572 48.117,-9.572C49.433,-9.572 50.483,-9.115 51.292,-8.204C52.094,-7.287 52.495,-6.083 52.495,-4.598C52.495,-3.113 52.094,-1.913 51.292,-0.996C50.483,-0.081 49.433,0.378 48.117,0.378M48.117,-0.99C48.945,-0.99 49.606,-1.315 50.103,-1.965C50.592,-2.615 50.839,-3.494 50.839,-4.598C50.839,-5.7 50.592,-6.573 50.103,-7.229C49.606,-7.878 48.945,-8.206 48.117,-8.206C47.285,-8.206 46.625,-7.878 46.138,-7.229C45.65,-6.573 45.406,-5.7 45.406,-4.598C45.406,-3.494 45.65,-2.615 46.138,-1.965C46.625,-1.315 47.285,-0.99 48.117,-0.99M54.801,0.129L54.801,-12.791L56.38,-12.791L56.38,0.129L54.801,0.129ZM63.063,0.378C61.762,0.378 60.711,-0.081 59.904,-0.996C59.096,-1.913 58.695,-3.113 58.695,-4.598C58.695,-6.083 59.096,-7.287 59.904,-8.204C60.711,-9.115 61.762,-9.572 63.063,-9.572C64.377,-9.572 65.434,-9.115 66.235,-8.204C67.038,-7.287 67.439,-6.083 67.439,-4.598C67.439,-3.113 67.038,-1.913 66.235,-0.996C65.434,-0.081 64.377,0.378 63.063,0.378M63.063,-0.99C63.895,-0.99 64.556,-1.315 65.048,-1.965C65.54,-2.615 65.784,-3.494 65.784,-4.598C65.784,-5.7 65.54,-6.573 65.048,-7.229C64.556,-7.878 63.895,-8.206 63.063,-8.206C62.229,-8.206 61.574,-7.878 61.081,-7.229C60.594,-6.573 60.351,-5.7 60.351,-4.598C60.351,-3.494 60.594,-2.615 61.081,-1.965C61.574,-1.315 62.229,-0.99 63.063,-0.99M73.157,2.793C74.066,2.793 74.757,2.503 75.229,1.935C75.701,1.358 75.939,0.528 75.939,-0.568L75.939,-0.878L75.935,-0.868C75.279,-0.038 74.432,0.378 73.386,0.378C72.126,0.378 71.126,-0.091 70.38,-1.034C69.638,-1.975 69.268,-3.249 69.268,-4.849C69.268,-6.264 69.628,-7.404 70.354,-8.271C71.096,-9.138 72.056,-9.572 73.233,-9.572C74.366,-9.572 75.265,-9.084 75.925,-8.107L76.037,-7.937L76.037,-9.285L77.524,-9.285L77.524,-0.564C77.519,1.024 77.158,2.199 76.452,2.962C75.747,3.724 74.66,4.103 73.188,4.103C72.121,4.103 71.278,3.857 70.648,3.361C70.023,2.874 69.644,2.163 69.517,1.226L71.136,1.226C71.228,1.722 71.456,2.11 71.807,2.377C72.162,2.654 72.608,2.793 73.157,2.793M73.467,-8.135C72.578,-8.135 71.938,-7.85 71.532,-7.287C71.126,-6.722 70.923,-5.824 70.923,-4.598C70.923,-3.443 71.141,-2.551 71.583,-1.927C72.025,-1.3 72.655,-0.99 73.467,-0.99C74.229,-0.99 74.848,-1.279 75.315,-1.853C75.788,-2.429 76.016,-3.187 76.016,-4.134C76.016,-5.466 75.808,-6.467 75.382,-7.134C74.96,-7.799 74.32,-8.135 73.467,-8.135M87.812,-9.285L84.237,0.437C83.684,1.886 83.196,2.836 82.77,3.278C82.338,3.727 81.688,3.946 80.83,3.946C80.551,3.953 80.291,3.922 80.068,3.852L80.068,2.377C80.308,2.468 80.606,2.513 80.972,2.522C81.327,2.522 81.622,2.372 81.866,2.08C82.11,1.782 82.379,1.237 82.684,0.432L82.714,0.282L82.714,0.288L79.221,-9.285L81.022,-9.285L83.536,-1.513L86.081,-9.285L87.812,-9.285Z" style="fill:rgb(7,56,60);fill-rule:nonzero;"/>
        </g>
    </g>
</svg>
